<?xml version="1.0" standalone="no"?>
<!DOCTYPE svg PUBLIC "-//W3C//DTD SVG 20010904//EN"
 "http://www.w3.org/TR/2001/REC-SVG-20010904/DTD/svg10.dtd">
<svg version="1.0" xmlns="http://www.w3.org/2000/svg"
 width="20.000000pt" height="20.000000pt" viewBox="0 0 512.000000 512.000000"
 preserveAspectRatio="xMidYMid meet">

<g transform="translate(0.000000,512.000000) scale(0.100000,-0.100000)"
fill="#000000" stroke="none">
<path d="M1381 4789 c-85 -25 -164 -112 -176 -193 -3 -22 -5 -356 -3 -741 3
-650 4 -703 21 -736 25 -51 74 -99 127 -123 45 -21 47 -21 1320 -21 1440 0
1330 -6 1408 79 75 81 73 55 70 852 -3 669 -4 711 -22 744 -26 49 -74 98 -121
123 l-40 22 -1275 2 c-802 1 -1287 -2 -1309 -8z m2231 -264 c-9 -141 124 -274
264 -263 l54 5 0 -397 0 -397 -50 5 c-131 12 -270 -114 -270 -245 l0 -43 -945
0 -945 0 0 43 c0 58 -24 125 -60 169 -40 49 -125 90 -190 91 l-50 2 0 393 0
392 53 0 c132 0 244 115 246 253 l1 47 948 0 947 0 -3 -55z"/>
<path d="M2595 4440 c-210 -28 -389 -180 -456 -390 -27 -85 -30 -230 -5 -315
70 -241 287 -405 534 -405 163 0 284 50 398 164 112 112 164 237 164 393 0
339 -297 597 -635 553z m363 -431 c-2 -4 -83 -84 -181 -179 l-178 -173 -105
104 -104 104 55 55 55 55 53 -53 52 -52 125 125 125 125 52 -52 c29 -29 52
-55 51 -59z"/>
<path d="M1800 4029 c-65 -26 -109 -106 -95 -172 15 -69 84 -127 152 -127 14
0 45 9 68 20 111 54 112 221 1 274 -38 18 -88 20 -126 5z"/>
<path d="M3424 4026 c-74 -33 -109 -124 -76 -198 38 -87 129 -120 211 -76 53
29 81 76 81 139 0 108 -114 179 -216 135z"/>
<path d="M1263 2785 c-65 -28 -82 -113 -34 -167 l29 -33 1404 -3 c1377 -2
1404 -2 1435 18 44 27 62 84 39 131 -33 69 83 64 -1451 66 -1170 2 -1395 0
-1422 -12z"/>
<path d="M1241 2374 c-55 -46 -51 -131 8 -171 25 -17 96 -18 1391 -21 751 -2
1384 0 1407 3 102 15 134 143 50 198 -24 16 -124 17 -1426 17 l-1399 0 -31
-26z"/>
<path d="M4105 2063 c-38 -10 -360 -131 -413 -154 l-53 -24 55 -48 55 -48 108
54 c59 30 179 82 266 117 86 35 157 67 157 70 0 22 -128 46 -175 33z"/>
<path d="M4395 1910 c-55 -23 -204 -92 -332 -155 l-232 -114 9 -33 c6 -18 10
-52 10 -75 0 -76 4 -77 84 -23 114 76 323 194 543 306 l202 102 -40 16 c-67
27 -132 20 -244 -24z"/>
<path d="M1360 1849 c-99 -13 -244 -52 -358 -98 l-103 -40 -38 38 c-71 71
-101 76 -339 62 -262 -16 -330 -25 -376 -46 -59 -28 -111 -88 -131 -150 -17
-55 -17 -67 19 -563 21 -279 40 -518 43 -532 23 -99 112 -180 213 -195 44 -6
464 19 525 31 65 14 130 61 163 120 7 12 144 8 1057 -32 1158 -50 1148 -50
1317 6 48 16 110 41 137 54 91 47 1506 877 1541 905 55 44 84 105 85 176 0
104 -50 170 -148 197 -41 11 -57 10 -114 -5 -147 -39 -526 -237 -863 -452
-228 -145 -267 -162 -484 -200 -264 -46 -479 -68 -871 -90 -357 -20 -370 -20
-395 5 -26 26 -26 62 1 86 18 16 96 26 612 75 654 62 639 59 709 137 45 50 61
99 56 172 -6 77 -46 144 -112 185 l-49 30 -521 7 c-605 9 -690 15 -886 63 -80
19 -190 42 -245 50 -107 16 -339 18 -445 4z m-750 -1054 c61 -59 63 -141 5
-200 -78 -77 -202 -51 -240 50 -26 67 -5 126 58 166 49 30 137 23 177 -16z"/>
</g>
</svg>
