<?xml version="1.0" ?><svg viewBox="0 0 64 64" xmlns="http://www.w3.org/2000/svg"><g id="virus-Bacteria-cell-infection"><path d="M61.615,28.212a1,1,0,0,0-.858-.182l-3.809.952-6.375-.91a18.685,18.685,0,0,0-2.66-6.43l3.861-5.149,3.368-2.02a1,1,0,0,0,.192-1.565L51.092,8.666a1,1,0,0,0-1.565.192l-2.02,3.368-5.149,3.861a18.685,18.685,0,0,0-6.43-2.66l-.91-6.375.952-3.809A1,1,0,0,0,35,2H29a1,1,0,0,0-.97,1.243l.952,3.809-.91,6.375a18.685,18.685,0,0,0-6.43,2.66l-5.149-3.861-2.02-3.368a1,1,0,0,0-1.565-.192L8.666,12.908a1,1,0,0,0,.192,1.565l3.368,2.02,3.861,5.149a18.685,18.685,0,0,0-2.66,6.43l-6.375.91L3.243,28.03A1,1,0,0,0,2,29v6a1,1,0,0,0,1.243.97l3.809-.952,6.375.91a18.685,18.685,0,0,0,2.66,6.43l-3.861,5.149-3.368,2.02a1,1,0,0,0-.192,1.565l4.242,4.242a1,1,0,0,0,1.565-.192l2.02-3.368,5.149-3.861a18.685,18.685,0,0,0,6.43,2.66l.91,6.375-.952,3.809A1,1,0,0,0,29,62h6a1,1,0,0,0,.97-1.243l-.952-3.809.91-6.375a18.685,18.685,0,0,0,6.43-2.66l5.149,3.861,2.02,3.368a1,1,0,0,0,1.565.192l4.242-4.242a1,1,0,0,0-.192-1.565l-3.368-2.02-3.861-5.149a18.685,18.685,0,0,0,2.66-6.43l6.375-.91,3.809.952A1,1,0,0,0,62,35V29A1,1,0,0,0,61.615,28.212ZM60,33.719l-2.757-.689a1,1,0,0,0-.385-.02l-7.275,1.04a1,1,0,0,0-.845.822,16.777,16.777,0,0,1-2.869,6.937,1,1,0,0,0,.016,1.178l4.407,5.877a1,1,0,0,0,.285.257l2.438,1.462-2.432,2.432-1.462-2.438a1,1,0,0,0-.257-.285l-5.877-4.407a1,1,0,0,0-1.178-.016,16.777,16.777,0,0,1-6.937,2.869,1,1,0,0,0-.822.845l-1.04,7.275a1.018,1.018,0,0,0,.02.385L33.719,60H30.281l.689-2.757a1.018,1.018,0,0,0,.02-.385l-1.04-7.275a1,1,0,0,0-.822-.845,16.777,16.777,0,0,1-6.937-2.869,1,1,0,0,0-1.178.016l-5.877,4.407a1,1,0,0,0-.257.285l-1.462,2.438-2.432-2.432,2.438-1.462a1,1,0,0,0,.285-.257l4.407-5.877a1,1,0,0,0,.016-1.178,16.777,16.777,0,0,1-2.869-6.937,1,1,0,0,0-.845-.822L7.142,33.01a1,1,0,0,0-.385.02L4,33.719V30.281l2.757.689a.98.98,0,0,0,.385.02l7.275-1.04a1,1,0,0,0,.845-.822,16.777,16.777,0,0,1,2.869-6.937,1,1,0,0,0-.016-1.178l-4.407-5.877a1,1,0,0,0-.285-.257l-2.438-1.462,2.432-2.432,1.462,2.438a1,1,0,0,0,.257.285l5.877,4.407a1,1,0,0,0,1.178.016,16.777,16.777,0,0,1,6.937-2.869,1,1,0,0,0,.822-.845l1.04-7.275a1.018,1.018,0,0,0-.02-.385L30.281,4h3.438L33.03,6.757a1.018,1.018,0,0,0-.02.385l1.04,7.275a1,1,0,0,0,.822.845,16.777,16.777,0,0,1,6.937,2.869,1,1,0,0,0,1.178-.016l5.877-4.407a1,1,0,0,0,.257-.285l1.462-2.438,2.432,2.432-2.438,1.462a1,1,0,0,0-.285.257l-4.407,5.877a1,1,0,0,0-.016,1.178,16.777,16.777,0,0,1,2.869,6.937,1,1,0,0,0,.845.822l7.275,1.04a.981.981,0,0,0,.385-.02L60,30.281Z"/><path d="M29,34a4,4,0,1,0-4,4A4,4,0,0,0,29,34Zm-4,2a2,2,0,1,1,2-2A2,2,0,0,1,25,36Z"/><path d="M28,25a3,3,0,1,0-3-3A3,3,0,0,0,28,25Zm0-4a1,1,0,1,1-1,1A1,1,0,0,1,28,21Z"/><path d="M39,22a5,5,0,1,0,5,5A5.006,5.006,0,0,0,39,22Zm0,8a3,3,0,1,1,3-3A3,3,0,0,1,39,30Z"/><path d="M38,35a4,4,0,1,0,4,4A4,4,0,0,0,38,35Zm0,6a2,2,0,1,1,2-2A2,2,0,0,1,38,41Z"/><circle cx="21" cy="27" r="2"/><path d="M29,41a3,3,0,1,0,3,3A3,3,0,0,0,29,41Zm0,4a1,1,0,1,1,1-1A1,1,0,0,1,29,45Z"/></g></svg>