<?xml version="1.0" encoding="utf-8"?>
<!-- Svg Vector Icons : http://www.onlinewebfonts.com/icon -->
<!DOCTYPE svg PUBLIC "-//W3C//DTD SVG 1.1//EN" "http://www.w3.org/Graphics/SVG/1.1/DTD/svg11.dtd">
<svg version="1.1" xmlns="http://www.w3.org/2000/svg" xmlns:xlink="http://www.w3.org/1999/xlink" x="0px" y="0px" viewBox="0 0 1000 1000" enable-background="new 0 0 1000 1000" xml:space="preserve">
<metadata> Svg Vector Icons : http://www.onlinewebfonts.com/icon </metadata>
<g><g transform="translate(0.000000,512.000000) scale(0.100000,-0.100000)"><path d="M2766.3,4982.6c-55.5-21.1-147.4-82.3-204.8-134c-285.2-260.3-285.2-616.3-1.9-876.6c137.8-124.4,285.2-181.8,434.5-168.4c214.4,19.1,413.4,160.8,514.9,367.5c55.5,112.9,59.3,135.9,51.7,264.1c-7.7,107.2-23,164.6-65.1,241.2C3348.2,4950.1,3024.7,5086,2766.3,4982.6z M3097.4,4574.9c51.7-34.5,74.6-132.1,57.4-231.6c-17.2-90-88-134-210.5-132.1c-78.5,0-101.5,9.6-139.7,53.6c-88,103.4-42.1,317.7,76.6,342.6C2946.2,4622.8,3047.7,4605.5,3097.4,4574.9z"/><path d="M6927.5,4601.7c-114.8-28.7-222-91.9-310.1-183.8c-179.9-183.8-229.7-423-134-633.6c63.2-143.6,195.2-275.6,340.7-342.6c279.5-126.3,633.6,24.9,775.2,333c128.2,281.4-7.6,622.1-310.1,769.5C7159.1,4609.4,7036.6,4628.5,6927.5,4601.7z M7191.6,4151.9c38.3-36.4,47.9-65.1,47.9-141.6c0-51.7-5.7-109.1-11.5-126.3c-19.1-45.9-111-86.1-199.1-86.1c-157,0-243.1,170.4-162.7,325.4c34.5,67,49.8,72.7,178,74.6C7126.5,4199.8,7153.3,4192.1,7191.6,4151.9z"/><path d="M4253.5,3983.5c-275.6-76.6-495.7-369.4-472.8-629.7c17.2-201,151.2-398.1,340.7-503.4c91.9-51.7,120.6-57.4,266.1-57.4s174.2,5.7,266.1,57.4c189.5,105.3,323.5,302.4,340.7,503.4C5026.8,3725.1,4605.7,4083,4253.5,3983.5z M4533,3543.2c44-38.3,53.6-61.3,53.6-139.7c3.8-168.4-91.9-243.1-266.1-210.5c-90,17.2-134,88-132.1,210.5c1.9,126.3,63.2,183.8,199.1,183.8C4458.3,3587.3,4494.7,3575.8,4533,3543.2z"/><path d="M5886.2,3369.1c-197.1-63.2-336.9-187.6-424.9-375.2c-164.6-356,122.5-796.2,537.9-819.2c107.2-7.7,145.5,0,239.3,42.1c61.3,28.7,151.2,91.9,201,139.7c246.9,243.1,248.8,587.6,3.8,840.3C6292,3349.9,6056.6,3424.6,5886.2,3369.1z M6138.9,2963.3c45.9-19.1,86.1-111,86.1-199.1c0-157-170.4-243.1-323.5-162.7c-67,32.5-78.5,61.3-78.5,183.8c0,76.6,9.6,105.3,47.9,141.6c36.4,38.3,65.1,47.9,141.7,47.9C6064.2,2974.8,6121.6,2969,6138.9,2963.3z"/><path d="M2153.8,3145.1c-55.5-21.1-147.4-82.3-204.8-134c-285.2-260.3-285.2-616.3-1.9-876.6c248.8-225.9,543.6-227.8,798.2-3.8c45.9,42.1,109.1,120.6,139.7,176.1c51.7,91.9,57.4,120.6,57.4,266c0,145.5-5.7,174.2-57.4,266.1C2733.7,3112.6,2412.2,3248.5,2153.8,3145.1z M2484.9,2737.4c51.7-34.5,74.6-132.1,57.4-231.6c-17.2-90-88-134-210.5-132.1c-78.5,0-101.5,9.6-139.7,53.6c-88,103.4-42.1,317.7,76.6,342.6C2333.7,2785.3,2435.2,2768,2484.9,2737.4z"/><path d="M7540,2764.2c-271.8-68.9-472.8-306.3-488.1-576.1c-7.7-107.2,0-145.5,44-241.2c63.2-143.6,195.2-275.6,340.7-342.6c212.5-95.7,453.6-42.1,639.3,141.6c239.3,241.2,245,568.5,15.3,825C7959.1,2718.3,7708.4,2804.4,7540,2764.2z M7804.1,2314.4c38.3-38.3,47.9-65.1,47.9-147.4c-1.9-147.4-61.3-206.7-210.5-206.7c-157,0-243.1,170.4-162.7,325.4c34.5,67,49.8,72.7,178,74.6C7739,2362.3,7765.8,2354.6,7804.1,2314.4z"/><path d="M1445.6,1529.6c-63.2-26.8-120.6-112.9-120.6-181.8c0-70.8,57.4-155,124.4-183.8c36.4-15.3,112.9-26.8,172.3-26.8H1727V498v-639.3l-153.1-76.6C1332.7-340.4,1160.4-464.8,946-671.5c-241.2-229.7-407.7-449.8-547.4-719.7C216.8-1737.7,100-2164.5,100-2480.3c0-568.5,254.6-1158,687.1-1588.7c735-731.2,1782-909.2,2685.4-459.4c798.2,400,1316.9,1213.5,1316.9,2069.1c0,949.4-637.4,1914.1-1498.7,2268.2l-128.2,53.6v637.4v637.4h105.3c191.4,0,296.7,74.6,296.7,210.5c0,86.1-44,149.3-126.3,183.8C3344.3,1569.8,1535.5,1569.8,1445.6,1529.6z M2760.5,381.2v-758l44-44c24.9-24.9,103.4-63.2,178-88.1c798.2-260.3,1353.2-983.8,1399.2-1824.1l11.5-204.8l-1940.9,3.8l-1940.9,5.7l5.7,168.4c23,708.2,545.5,1456.6,1242.2,1776.3c335,153.1,338.8,156.9,363.7,227.8c15.3,47.9,23,279.5,23,780.9l1.9,712h306.3h306.3V381.2z M4310.9-2968.4c0-53.6-112.9-323.5-191.4-459.4c-312-530.2-844.1-863.2-1485.3-928.3c-583.8-59.3-1159.9,143.6-1563.8,547.4c-214.4,214.4-421.1,564.6-482.3,817.3l-13.4,51.7h1868.1C4108-2939.7,4310.9-2943.5,4310.9-2968.4z"/><path d="M6100.6,1095.1c-101.4-90-93.8-256.5,15.3-321.6c44-28.7,95.7-38.3,191.4-38.3h128.2V-49.5v-784.8l-918.8-1837.5C4789.5-4126.4,4598-4524.5,4598-4582c0-74.7,40.2-139.7,109.1-174.2c30.6-15.3,740.7-21,2551.4-21h2511.2l65.1,65.1c45.9,45.9,65.1,82.3,65.1,124.4c0,40.2-298.6,656.5-918.8,1896.8L8062.5-853.4V-59v794.3h135.9c128.3,0,139.7,3.8,201,65.1c45.9,45.9,65.1,82.3,65.1,124.4c0,74.6-45.9,166.5-93.8,193.3c-24.9,11.5-417.3,19.1-1129.3,19.1h-1091L6100.6,1095.1z M7660.5-116.5v-851.8l392.4-784.8l392.4-784.8H7249c-658.4,0-1196.3,3.8-1196.3,9.6c0,5.7,176.1,363.7,392.4,794.3l392.4,784.8v842.2v842.2H7249h411.5V-116.5z M9006.1-3657.5l357.9-717.8H7249c-1163.8,0-2115,3.8-2115,9.6c0,5.7,158.9,329.2,354.1,717.8l354.1,708.2h1403h1401.1L9006.1-3657.5z"/></g></g>
</svg>