<?xml version="1.0" standalone="no"?>
<!DOCTYPE svg PUBLIC "-//W3C//DTD SVG 20010904//EN"
 "http://www.w3.org/TR/2001/REC-SVG-20010904/DTD/svg10.dtd">
<svg version="1.0" xmlns="http://www.w3.org/2000/svg"
 width="980.000000pt" height="982.000000pt" viewBox="0 0 980.000000 982.000000"
 preserveAspectRatio="xMidYMid meet">
 <g transform="translate(0.000000,982.000000) scale(0.100000,-0.100000)"
fill="#000000" stroke="none">
<path d="M5615 9800 c-250 -8 -297 -17 -391 -78 -183 -118 -418 -346 -2233
-2157 -1604 -1600 -2831 -2839 -2902 -2928 -98 -122 -116 -392 -40 -570 24
-55 118 -153 1200 -1246 865 -873 2442 -2439 2669 -2649 109 -100 126 -112
188 -132 94 -30 246 -37 342 -16 135 28 157 44 412 292 839 815 4016 3998
4665 4674 189 197 216 240 241 382 26 149 33 626 34 2244 l0 1591 -26 64 c-61
151 -105 221 -199 314 -95 96 -156 134 -308 194 l-78 31 -1677 -2 c-922 -1
-1776 -4 -1897 -8z m3423 -440 c134 -8 146 -10 184 -36 51 -36 106 -103 119
-146 6 -19 14 -238 19 -508 11 -591 12 -2816 1 -3041 -10 -203 -6 -196 -187
-394 -149 -163 -3829 -3851 -4326 -4336 -361 -351 -477 -456 -516 -466 -36 -9
-77 16 -187 112 -122 107 -3211 3190 -3476 3469 -185 194 -249 273 -249 306 0
64 177 248 2115 2189 2148 2152 2792 2785 2890 2839 27 15 112 17 880 22 1101
6 2551 1 2733 -10z"/>
<path d="M7710 8723 c-140 -23 -343 -141 -451 -262 -274 -305 -297 -755 -56
-1076 118 -157 273 -262 465 -318 107 -30 301 -29 417 2 245 66 441 224 553
446 135 270 110 617 -62 859 -121 170 -344 316 -526 345 -62 10 -287 13 -340
4z m251 -421 c42 -10 96 -30 120 -44 68 -40 155 -138 192 -215 28 -60 32 -78
32 -154 0 -79 -3 -91 -38 -163 -48 -97 -122 -172 -212 -217 -201 -99 -455 0
-558 219 -29 61 -32 76 -32 163 0 90 2 99 38 172 59 120 149 197 275 238 72
23 90 23 183 1z"/>
<path d="M5223 6470 c-99 -18 -270 -94 -368 -164 -77 -55 -230 -212 -286 -293
-91 -132 -129 -247 -129 -393 0 -170 51 -328 197 -621 57 -113 103 -210 103
-215 0 -5 -207 -216 -460 -469 -368 -368 -462 -457 -470 -445 -6 8 -35 65 -65
125 -77 154 -90 210 -90 380 0 130 2 146 30 224 18 51 57 126 101 195 l72 110
-65 71 c-86 91 -212 205 -228 205 -19 0 -178 -241 -224 -340 -129 -275 -141
-559 -36 -830 46 -121 109 -242 172 -334 30 -44 55 -82 56 -86 1 -4 -61 -73
-137 -154 l-139 -148 91 -91 92 -92 143 143 144 144 109 -73 c60 -39 159 -96
219 -125 189 -91 304 -119 485 -118 208 1 361 50 543 171 287 190 427 438 427
753 0 224 -53 393 -220 701 -44 80 -80 151 -80 158 0 6 190 203 422 437 l422
426 19 -24 c65 -79 107 -216 107 -347 0 -104 -19 -185 -76 -318 -24 -57 -44
-106 -44 -111 0 -4 65 -72 144 -151 l143 -143 41 73 c146 266 201 471 188 703
-11 212 -42 304 -170 515 l-58 94 119 119 118 120 -94 88 -94 88 -113 -104
c-62 -57 -119 -104 -125 -104 -7 0 -49 24 -93 54 -100 66 -240 137 -343 173
-72 25 -92 27 -263 29 -102 2 -208 -1 -237 -6z m432 -424 c191 -64 216 -98
145 -192 -53 -70 -720 -734 -738 -734 -15 0 -82 138 -118 243 -55 161 -52 271
9 397 55 113 221 258 347 304 71 26 251 16 355 -18z m-624 -1816 c27 -85 35
-221 20 -301 -21 -103 -63 -174 -165 -275 -136 -134 -229 -174 -410 -174 -158
1 -260 36 -394 138 l-74 55 439 439 438 439 63 -128 c34 -70 72 -157 83 -193z"/>
</g>
</svg>
